<?xml version="1.0" standalone="no"?><!DOCTYPE svg PUBLIC "-//W3C//DTD SVG 1.1//EN" "http://www.w3.org/Graphics/SVG/1.1/DTD/svg11.dtd"><svg t="1778813744981" class="icon" viewBox="0 0 1024 1024" version="1.1" xmlns="http://www.w3.org/2000/svg" p-id="11873" xmlns:xlink="http://www.w3.org/1999/xlink" width="100" height="100"><path d="M618.496 128H405.504c-52.6336 0-95.488 42.8032-95.488 95.488V716.8c0 98.816 80.384 179.2 179.2 179.2h45.5168c98.816 0 179.2-80.384 179.2-179.2V223.488c0-52.6336-42.8032-95.488-95.488-95.488zM512 869.8368c-40.2432 0-72.96-32.7168-72.96-72.96s32.7168-72.96 72.96-72.96 73.0112 32.7168 73.0112 72.96-32.768 72.96-73.0112 72.96z m93.9008-251.6992a21.504 21.504 0 0 1-21.504 21.504H439.6544a21.504 21.504 0 0 1-21.504-21.504V321.2288a21.504 21.504 0 0 1 21.504-21.504h144.7424a21.504 21.504 0 0 1 21.504 21.504v296.8576z" fill="#515151" p-id="11874"></path><path d="M512 739.2256c-31.7952 0-57.6 25.856-57.6 57.6s25.856 57.6 57.6 57.6 57.6-25.856 57.6-57.6-25.856-57.6-57.6-57.6z m-3.8912 28.8768a3.8912 3.8912 0 1 1 7.7824 0v21.5552a3.8912 3.8912 0 1 1-7.7824 0v-21.5552z m3.8912 49.2544c-11.3152 0-20.48-9.216-20.48-20.48a20.48 20.48 0 0 1 10.3424-17.8176l0.3584-0.2048 1.5872-0.3072c1.3824 0 2.7136 0.768 3.3792 1.9968 0.512 0.8704 0.6656 1.9456 0.3584 2.9696-0.256 1.024-0.9216 1.8432-1.8432 2.3552-3.9424 2.2528-6.4 6.5024-6.4 11.008a12.6976 12.6976 0 1 0 25.3952 0c0-4.4032-2.3552-8.5504-6.144-10.8544a3.968 3.968 0 0 1-1.3312-5.376c0.7168-1.1776 1.9968-1.8944 3.3792-1.8944h0.4096l1.5872 0.5632c6.0928 3.6864 9.8304 10.4448 9.8304 17.5104 0 11.3152-9.216 20.48-20.48 20.48zM440.1664 421.12l18.7904-2.048c0.4608 3.84 1.6384 6.656 3.584 8.4992 1.9456 1.8432 4.5056 2.7648 7.68 2.7648 4.0448 0 7.424-1.8432 10.24-5.5296 2.816-3.6864 4.608-11.3152 5.376-22.9376-4.9152 5.6832-11.008 8.4992-18.3296 8.4992-7.9872 0-14.848-3.072-20.6336-9.216-5.7856-6.144-8.6528-14.1824-8.6528-24.0128s3.0208-18.5856 9.1648-24.832c6.0928-6.2976 13.8752-9.472 23.3472-9.472 10.2912 0 18.688 3.9936 25.2928 11.9296 6.6048 7.936 9.8816 21.0432 9.8816 39.2192s-3.4304 31.8976-10.2912 40.0896c-6.8608 8.192-15.8208 12.3392-26.8288 12.3392-7.936 0-14.336-2.0992-19.2512-6.3488-4.9152-4.1984-8.0384-10.5472-9.4208-18.8928z m43.9808-42.4448c0-6.2464-1.4336-11.1104-4.3008-14.592-2.8672-3.4304-6.1952-5.1712-9.984-5.1712s-6.6048 1.4336-8.96 4.2496c-2.4064 2.816-3.584 7.4752-3.584 13.9264s1.28 11.3664 3.8912 14.4384c2.56 3.072 5.8368 4.608 9.6768 4.608s6.8608-1.4848 9.4208-4.4032c2.56-2.9696 3.84-7.2704 3.84-13.0048zM584.3456 367.9744l-18.7904 2.048c-0.4608-3.8912-1.6384-6.7072-3.584-8.5504-1.9456-1.8432-4.4544-2.7648-7.5264-2.7648-4.096 0-7.5776 1.8432-10.3936 5.5296-2.816 3.6864-4.608 11.3664-5.376 23.04 4.864-5.7344 10.8544-8.5504 18.0224-8.5504 8.0896 0 15.0528 3.072 20.8384 9.2672 5.7856 6.1952 8.704 14.1312 8.704 23.9104 0 10.3424-3.0208 18.688-9.1136 24.9856-6.0928 6.2464-13.8752 9.4208-23.4496 9.4208-10.24 0-18.6368-3.9936-25.2416-11.9296-6.6048-7.936-9.8816-20.992-9.8816-39.1168s3.4304-32 10.2912-40.192 15.7696-12.3392 26.7776-12.3392c7.7312 0 14.08 2.1504 19.1488 6.4512 5.0688 4.3008 8.2432 10.5984 9.6256 18.7904z m-44.032 42.3936c0 6.3488 1.4336 11.2128 4.352 14.6432 2.9184 3.4304 6.2464 5.12 9.984 5.12s6.6048-1.4336 8.96-4.1984c2.4064-2.816 3.584-7.424 3.584-13.824s-1.28-11.4176-3.8912-14.4896c-2.56-3.072-5.8368-4.608-9.6768-4.608s-6.8608 1.4848-9.472 4.4032c-2.6112 2.9184-3.8912 7.2704-3.8912 12.9536zM505.6 512.2048l-18.7904 2.048c-0.4608-3.8912-1.6384-6.7072-3.584-8.5504-1.9456-1.8432-4.4544-2.7648-7.5264-2.7648-4.096 0-7.5776 1.8432-10.3936 5.5296-2.816 3.6864-4.608 11.3664-5.376 23.04 4.864-5.7344 10.8544-8.5504 18.0224-8.5504 8.0896 0 15.0528 3.072 20.8384 9.2672 5.7856 6.1952 8.704 14.1312 8.704 23.9104 0 10.3424-3.0208 18.688-9.1136 24.9344-6.0928 6.2464-13.8752 9.4208-23.4496 9.4208-10.24 0-18.6368-3.9936-25.2416-11.9296-6.6048-7.936-9.8816-20.992-9.8816-39.1168s3.4304-32 10.2912-40.192c6.8608-8.192 15.7696-12.3392 26.7776-12.3392 7.7312 0 14.08 2.1504 19.1488 6.4512 5.0688 4.3008 8.2432 10.5984 9.6256 18.7904z m-44.032 42.3936c0 6.3488 1.4336 11.2128 4.352 14.6432s6.2464 5.12 9.984 5.12 6.6048-1.4336 8.96-4.1984c2.4064-2.816 3.584-7.424 3.584-13.824s-1.28-11.4176-3.8912-14.4896c-2.56-3.072-5.8368-4.608-9.6768-4.608s-6.8608 1.4848-9.472 4.4032c-2.6112 2.9184-3.8912 7.2704-3.8912 12.9536zM551.3728 486.912c9.8304 0 17.5104 3.5328 23.04 10.496 6.6048 8.2944 9.8816 22.0672 9.8816 41.3184s-3.328 32.9728-9.984 41.3696c-5.4784 6.912-13.1584 10.3424-22.9888 10.3424s-17.8176-3.7888-23.8592-11.3664c-6.0416-7.5776-9.0624-21.0944-9.0624-40.5504s3.328-32.8192 9.9328-41.216c5.4784-6.912 13.1584-10.3936 22.9888-10.3936z m0 16.128c-2.3552 0-4.4544 0.768-6.2976 2.2528-1.8432 1.4848-3.2768 4.1984-4.3008 8.0896-1.3312 5.0176-1.9968 13.4656-1.9968 25.3952s0.6144 20.0704 1.792 24.5248 2.7136 7.424 4.5056 8.8576c1.792 1.4848 3.8912 2.2016 6.2464 2.2016s4.4544-0.768 6.2976-2.2528c1.8432-1.4848 3.2768-4.1984 4.3008-8.0384 1.3312-4.9664 1.9968-13.4144 1.9968-25.2928s-0.6144-20.0704-1.792-24.5248c-1.1776-4.4544-2.7136-7.424-4.5056-8.9088-1.792-1.4848-3.8912-2.2528-6.2464-2.2528z" fill="#515151" p-id="11875"></path></svg>