<?xml version="1.0" standalone="no"?><!DOCTYPE svg PUBLIC "-//W3C//DTD SVG 1.1//EN" "http://www.w3.org/Graphics/SVG/1.1/DTD/svg11.dtd"><svg t="1778813599598" class="icon" viewBox="0 0 1024 1024" version="1.1" xmlns="http://www.w3.org/2000/svg" p-id="9489" xmlns:xlink="http://www.w3.org/1999/xlink" width="100" height="100"><path d="M598.133371 550.055809a23.096695 23.096695 0 0 0-23.096696-23.096695h-75.911139v-75.911139a23.096695 23.096695 0 1 0-46.193391 0v75.911139H377.328962a23.096695 23.096695 0 0 0 0 46.193391h75.911139v75.911139a23.096695 23.096695 0 0 0 46.193391 0v-75.911139h75.911139a23.096695 23.096695 0 0 0 22.78874-23.096696z" fill="#2c2c2c" p-id="9490"></path><path d="M843.11232 480.611745a22.634762 22.634762 0 0 0-2.001713-3.387515A314.73097 314.73097 0 0 0 808.467277 431.184817L503.128963 9.593135a23.096695 23.096695 0 0 0-38.494492 1.53978L188.551971 467.985551l-0.923868 1.693758A350.453859 350.453859 0 0 0 130.964211 660.458013c0 200.171361 170.915546 363.541987 381.095475 363.541987s380.941497-163.06267 380.941497-363.541987a349.991925 349.991925 0 0 0-49.888863-179.846268zM512.059686 977.806609C327.286122 977.806609 177.157601 835.376987 177.157601 660.458013A304.414446 304.414446 0 0 1 227.816353 492.776004a22.172828 22.172828 0 0 0 1.693758-3.079559L486.191387 65.025205l282.395596 390.950065 1.385802 2.001713 32.027418 43.883722 0.769889 1.077845a303.798534 303.798534 0 0 1 44.0377 157.365486c0 175.072952-150.12852 317.502574-334.748106 317.502573z" fill="#2c2c2c" p-id="9491"></path><path d="M720.545857 592.553729A23.096695 23.096695 0 0 0 700.682698 617.960094c16.167687 145.817137-126.877847 212.027664-133.344921 215.569157a23.096695 23.096695 0 1 0 18.785312 42.189964c1.847736-0.76989 180.462181-82.378214 160.445044-261.762548a23.096695 23.096695 0 0 0-26.022276-21.402938z" fill="#2c2c2c" p-id="9492"></path></svg>